# Blender 3.4.1
# www.blender.org
o Cylinder
v 0.000000 -7.500000 -60.000000
v 0.000000 22.500000 -60.000000
v 11.705421 -7.500000 -58.847115
v 11.705421 22.500000 -58.847115
v 22.961008 -7.500000 -55.432774
v 22.961008 22.500000 -55.432774
v 33.334217 -7.500000 -49.888176
v 33.334217 22.500000 -49.888176
v 42.426407 -7.500000 -42.426407
v 42.426407 22.500000 -42.426407
v 49.888176 -7.500000 -33.334217
v 49.888176 22.500000 -33.334217
v 55.432774 -7.500000 -22.961008
v 55.432774 22.500000 -22.961008
v 58.847115 -7.500000 -11.705420
v 58.847115 22.500000 -11.705420
v 60.000000 -7.500000 0.000000
v 60.000000 22.500000 0.000000
v 58.847115 -7.500000 11.705420
v 58.847115 22.500000 11.705420
v 55.432774 -7.500000 22.961008
v 55.432774 22.500000 22.961008
v 49.888176 -7.500000 33.334217
v 49.888176 22.500000 33.334217
v 42.426407 -7.500000 42.426407
v 42.426407 22.500000 42.426407
v 33.334217 -7.500000 49.888176
v 33.334217 22.500000 49.888176
v 22.961008 -7.500000 55.432774
v 22.961008 22.500000 55.432774
v 11.705421 -7.500000 58.847115
v 11.705421 22.500000 58.847115
v 0.000000 -7.500000 60.000000
v 0.000000 22.500000 60.000000
v -11.705420 -7.500000 58.847115
v -11.705420 22.500000 58.847115
v -22.961008 -7.500000 55.432774
v -22.961008 22.500000 55.432774
v -33.334217 -7.500000 49.888176
v -33.334217 22.500000 49.888176
v -42.426407 -7.500000 42.426407
v -42.426407 22.500000 42.426407
v -49.888176 -7.500000 33.334217
v -49.888176 22.500000 33.334217
v -55.432774 -7.500000 22.961008
v -55.432774 22.500000 22.961008
v -58.847115 -7.500000 11.705420
v -58.847115 22.500000 11.705420
v -60.000000 -7.500000 0.000000
v -60.000000 22.500000 0.000000
v -58.847115 -7.500000 -11.705420
v -58.847115 22.500000 -11.705420
v -55.432774 -7.500000 -22.961008
v -55.432774 22.500000 -22.961008
v -49.888176 -7.500000 -33.334217
v -49.888176 22.500000 -33.334217
v -42.426407 -7.500000 -42.426407
v -42.426407 22.500000 -42.426407
v -33.334217 -7.500000 -49.888176
v -33.334217 22.500000 -49.888176
v -22.961008 -7.500000 -55.432774
v -22.961008 22.500000 -55.432774
v -11.705420 -7.500000 -58.847115
v -11.705420 22.500000 -58.847115
vn -0.0000 -0.0000 -1.0000
vn 0.1420 -0.6857 -0.7139
vn -0.0000 -0.6857 -0.7279
vn 0.1951 -0.0000 -0.9808
vn 0.2786 -0.6857 -0.6725
vn 0.3827 -0.0000 -0.9239
vn 0.4044 -0.6857 -0.6052
vn 0.5556 -0.0000 -0.8315
vn 0.5147 -0.6857 -0.5147
vn 0.7071 -0.0000 -0.7071
vn 0.6052 -0.6857 -0.4044
vn 0.8315 -0.0000 -0.5556
vn 0.6725 -0.6857 -0.2786
vn 0.9239 -0.0000 -0.3827
vn 0.7139 -0.6857 -0.1420
vn 0.9808 -0.0000 -0.1951
vn 0.7279 -0.6857 -0.0000
vn 1.0000 -0.0000 -0.0000
vn 0.7139 -0.6857 0.1420
vn 0.9808 -0.0000 0.1951
vn 0.6725 -0.6857 0.2786
vn 0.9239 -0.0000 0.3827
vn 0.6052 -0.6857 0.4044
vn 0.8315 -0.0000 0.5556
vn 0.5147 -0.6857 0.5147
vn 0.7071 -0.0000 0.7071
vn 0.4044 -0.6857 0.6052
vn 0.5556 -0.0000 0.8315
vn 0.2786 -0.6857 0.6725
vn 0.3827 -0.0000 0.9239
vn 0.1420 -0.6857 0.7139
vn 0.1951 -0.0000 0.9808
vn -0.0000 -0.6857 0.7279
vn -0.0000 -0.0000 1.0000
vn -0.1420 -0.6857 0.7139
vn -0.1951 -0.0000 0.9808
vn -0.2786 -0.6857 0.6725
vn -0.3827 -0.0000 0.9239
vn -0.4044 -0.6857 0.6052
vn -0.5556 -0.0000 0.8315
vn -0.5147 -0.6857 0.5147
vn -0.7071 -0.0000 0.7071
vn -0.6052 -0.6857 0.4044
vn -0.8315 -0.0000 0.5556
vn -0.6725 -0.6857 0.2786
vn -0.9239 -0.0000 0.3827
vn -0.7139 -0.6857 0.1420
vn -0.9808 -0.0000 0.1951
vn -0.7279 -0.6857 -0.0000
vn -1.0000 -0.0000 -0.0000
vn -0.7139 -0.6857 -0.1420
vn -0.9808 -0.0000 -0.1951
vn -0.6725 -0.6857 -0.2786
vn -0.9239 -0.0000 -0.3827
vn -0.6052 -0.6857 -0.4044
vn -0.8315 -0.0000 -0.5556
vn -0.5147 -0.6857 -0.5147
vn -0.7071 -0.0000 -0.7071
vn -0.4044 -0.6857 -0.6052
vn -0.5556 -0.0000 -0.8315
vn -0.2786 -0.6857 -0.6725
vn -0.3827 -0.0000 -0.9239
vn -0.1420 -0.6857 -0.7139
vn -0.1951 -0.0000 -0.9808
vt 0.999997 0.411334
vt -0.000003 0.411334
vt 0.499997 0.411334
vt 0.999997 0.725081
vt -0.000003 0.725081
vt 0.937497 0.411334
vt 0.499997 0.411334
vt 0.937497 0.725081
vt 0.874997 0.411334
vt 0.499997 0.411334
vt 0.874997 0.725081
vt 0.812497 0.411334
vt 0.499997 0.411334
vt 0.812497 0.725081
vt 0.749997 0.411334
vt 0.499997 0.411334
vt 0.749997 0.725081
vt 0.687497 0.411334
vt 0.499997 0.411334
vt 0.687497 0.725081
vt 0.624997 0.411334
vt 0.499997 0.411334
vt 0.624997 0.725081
vt 0.562497 0.411334
vt 0.499997 0.411334
vt 0.562497 0.725081
vt 0.499997 0.411334
vt 0.499997 0.725081
vt 0.437497 0.411334
vt 0.499997 0.411334
vt 0.437497 0.725081
vt 0.374997 0.411334
vt 0.499997 0.411334
vt 0.374997 0.725081
vt 0.312497 0.411334
vt 0.499997 0.411334
vt 0.312497 0.725081
vt 0.249997 0.411334
vt 0.499997 0.411334
vt 0.249997 0.725081
vt 0.187497 0.411334
vt 0.499997 0.411334
vt 0.187497 0.725081
vt 0.124997 0.411334
vt 0.499997 0.411334
vt 0.124997 0.725081
vt 0.062497 0.411334
vt 0.499997 0.411334
vt 0.062497 0.725081
vt 0.999997 0.411334
vt -0.000003 0.411334
vt 0.499997 0.411334
vt -0.000003 0.725081
vt 0.999997 0.725081
vt 0.937497 0.411334
vt 0.499997 0.411334
vt 0.937497 0.725081
vt 0.874997 0.411334
vt 0.499997 0.411334
vt 0.874997 0.725081
vt 0.812497 0.411334
vt 0.499997 0.411334
vt 0.812497 0.725081
vt 0.749997 0.411334
vt 0.499997 0.411334
vt 0.749997 0.725081
vt 0.687497 0.411334
vt 0.499997 0.411334
vt 0.687497 0.725081
vt 0.624997 0.411334
vt 0.499997 0.411334
vt 0.624997 0.725081
vt 0.562497 0.411334
vt 0.499997 0.411334
vt 0.562497 0.725081
vt 0.499997 0.411334
vt 0.499997 0.725081
vt 0.437497 0.411334
vt 0.499997 0.411334
vt 0.437497 0.725081
vt 0.374997 0.411334
vt 0.499997 0.411334
vt 0.374997 0.725081
vt 0.312497 0.411334
vt 0.499997 0.411334
vt 0.312497 0.725081
vt 0.249997 0.411334
vt 0.499997 0.411334
vt 0.249997 0.725081
vt 0.187497 0.411334
vt 0.499997 0.411334
vt 0.187497 0.725081
vt 0.124997 0.411334
vt 0.499997 0.411334
vt 0.124997 0.725081
vt 0.062497 0.411334
vt 0.499997 0.411334
vt 0.062497 0.725081
s 1
f 2/4/1 3/6/2 1/1/3
f 4/8/4 5/9/5 3/6/2
f 6/11/6 7/12/7 5/9/5
f 8/14/8 9/15/9 7/12/7
f 10/17/10 11/18/11 9/15/9
f 12/20/12 13/21/13 11/18/11
f 14/23/14 15/24/15 13/21/13
f 16/26/16 17/27/17 15/24/15
f 18/28/18 19/29/19 17/27/17
f 20/31/20 21/32/21 19/29/19
f 22/34/22 23/35/23 21/32/21
f 24/37/24 25/38/25 23/35/23
f 26/40/26 27/41/27 25/38/25
f 28/43/28 29/44/29 27/41/27
f 30/46/30 31/47/31 29/44/29
f 32/49/32 33/51/33 31/47/31
f 34/54/34 35/55/35 33/50/33
f 36/57/36 37/58/37 35/55/35
f 38/60/38 39/61/39 37/58/37
f 40/63/40 41/64/41 39/61/39
f 42/66/42 43/67/43 41/64/41
f 44/69/44 45/70/45 43/67/43
f 46/72/46 47/73/47 45/70/45
f 48/75/48 49/76/49 47/73/47
f 50/77/50 51/78/51 49/76/49
f 52/80/52 53/81/53 51/78/51
f 54/83/54 55/84/55 53/81/53
f 56/86/56 57/87/57 55/84/55
f 58/89/58 59/90/59 57/87/57
f 60/92/60 61/93/61 59/90/59
f 62/95/62 63/96/63 61/93/61
f 64/98/64 1/2/3 63/96/63
f 31/48/31 47/74/47 63/97/63
f 2/4/1 4/8/4 3/6/2
f 4/8/4 6/11/6 5/9/5
f 6/11/6 8/14/8 7/12/7
f 8/14/8 10/17/10 9/15/9
f 10/17/10 12/20/12 11/18/11
f 12/20/12 14/23/14 13/21/13
f 14/23/14 16/26/16 15/24/15
f 16/26/16 18/28/18 17/27/17
f 18/28/18 20/31/20 19/29/19
f 20/31/20 22/34/22 21/32/21
f 22/34/22 24/37/24 23/35/23
f 24/37/24 26/40/26 25/38/25
f 26/40/26 28/43/28 27/41/27
f 28/43/28 30/46/30 29/44/29
f 30/46/30 32/49/32 31/47/31
f 32/49/32 34/53/34 33/51/33
f 34/54/34 36/57/36 35/55/35
f 36/57/36 38/60/38 37/58/37
f 38/60/38 40/63/40 39/61/39
f 40/63/40 42/66/42 41/64/41
f 42/66/42 44/69/44 43/67/43
f 44/69/44 46/72/46 45/70/45
f 46/72/46 48/75/48 47/73/47
f 48/75/48 50/77/50 49/76/49
f 50/77/50 52/80/52 51/78/51
f 52/80/52 54/83/54 53/81/53
f 54/83/54 56/86/56 55/84/55
f 56/86/56 58/89/58 57/87/57
f 58/89/58 60/92/60 59/90/59
f 60/92/60 62/95/62 61/93/61
f 62/95/62 64/98/64 63/96/63
f 64/98/64 2/5/1 1/2/3
f 63/97/63 1/3/3 3/7/2
f 3/7/2 5/10/5 7/13/7
f 7/13/7 9/16/9 11/19/11
f 11/19/11 13/22/13 15/25/15
f 15/25/15 17/27/17 19/30/19
f 19/30/19 21/33/21 23/36/23
f 23/36/23 25/39/25 27/42/27
f 27/42/27 29/45/29 31/48/31
f 31/48/31 33/52/33 35/56/35
f 35/56/35 37/59/37 39/62/39
f 39/62/39 41/65/41 43/68/43
f 43/68/43 45/71/45 47/74/47
f 47/74/47 49/76/49 51/79/51
f 51/79/51 53/82/53 55/85/55
f 55/85/55 57/88/57 59/91/59
f 59/91/59 61/94/61 63/97/63
f 63/97/63 3/7/2 7/13/7
f 7/13/7 11/19/11 15/25/15
f 15/25/15 19/30/19 23/36/23
f 23/36/23 27/42/27 31/48/31
f 31/48/31 35/56/35 39/62/39
f 39/62/39 43/68/43 47/74/47
f 47/74/47 51/79/51 55/85/55
f 55/85/55 59/91/59 63/97/63
f 63/97/63 7/13/7 15/25/15
f 15/25/15 23/36/23 31/48/31
f 31/48/31 39/62/39 47/74/47
f 47/74/47 55/85/55 63/97/63
f 63/97/63 15/25/15 31/48/31
