# Blender 3.4.1
# www.blender.org
o Bandeira
v -0.400000 0.010000 3.000000
v 0.400000 0.010000 3.000000
v -0.000000 0.000000 2.955000
v 0.031820 0.000000 2.968180
v 0.045000 0.000000 3.000000
v 0.031820 0.000000 3.031820
v -0.000000 0.000000 3.045000
v -0.031820 0.000000 3.031820
v -0.045000 0.000000 3.000000
v -0.031820 0.000000 2.968180
v 0.031820 3.000000 2.968180
v 0.000000 3.000000 2.955000
v 0.045000 3.000000 3.000000
v 0.031820 3.000000 3.031820
v -0.000000 3.000000 3.045000
v -0.031820 3.000000 3.031820
v -0.045000 3.000000 3.000000
v -0.031820 3.000000 2.968180
v -0.400000 0.010000 -3.000000
v 0.400000 0.010000 -3.000000
v -0.000000 0.000000 -2.955000
v 0.031820 0.000000 -2.968180
v 0.045000 0.000000 -3.000000
v 0.031820 0.000000 -3.031820
v -0.000000 0.000000 -3.045000
v -0.031820 0.000000 -3.031820
v -0.045000 0.000000 -3.000000
v -0.031820 0.000000 -2.968180
v 0.031820 3.000000 -2.968180
v 0.000000 3.000000 -2.955000
v 0.045000 3.000000 -3.000000
v 0.031820 3.000000 -3.031820
v -0.000000 3.000000 -3.045000
v -0.031820 3.000000 -3.031820
v -0.045000 3.000000 -3.000000
v -0.031820 3.000000 -2.968180
v -0.005000 2.396982 2.955000
v -0.005000 2.896982 2.955000
v -0.005000 1.896982 0.000000
v -0.005000 2.396982 0.000000
v -0.005000 2.535772 1.477500
v -0.005000 2.035772 1.477500
v -0.005000 2.690124 2.216250
v -0.005000 2.190124 2.216250
v -0.005000 1.937499 0.738750
v -0.005000 2.437499 0.738750
v -0.005000 2.396982 -2.955000
v -0.005000 2.896982 -2.955000
v -0.005000 2.535772 -1.477500
v -0.005000 2.035772 -1.477500
v -0.005000 2.690124 -2.216250
v -0.005000 2.190124 -2.216250
v -0.005000 1.937499 -0.738750
v -0.005000 2.437499 -0.738750
v 0.005000 2.896982 2.955000
v 0.005000 2.396982 2.955000
v 0.005000 2.396982 0.000000
v 0.005000 1.896982 0.000000
v 0.005000 2.690124 2.216250
v 0.005000 1.937499 0.738750
v 0.005000 2.437499 0.738750
v 0.005000 2.535772 1.477500
v 0.005000 2.190124 2.216250
v 0.005000 2.035772 1.477500
v 0.005000 2.896982 -2.955000
v 0.005000 2.396982 -2.955000
v 0.005000 2.690124 -2.216250
v 0.005000 1.937499 -0.738750
v 0.005000 2.437499 -0.738750
v 0.005000 2.535772 -1.477500
v 0.005000 2.190124 -2.216250
v 0.005000 2.035772 -1.477500
vn 0.9239 -0.0000 -0.3827
vn 0.9239 -0.0000 0.3827
vn 0.3827 -0.0000 0.9239
vn -0.3827 -0.0000 0.9239
vn -0.9239 -0.0000 0.3827
vn -0.9239 -0.0000 -0.3827
vn -0.3827 -0.0000 -0.9239
vn -0.0000 -1.0000 -0.0000
vn -0.0000 1.0000 -0.0000
vn 0.3827 -0.0000 -0.9239
vn -0.0000 0.9913 -0.1319
vn -0.0000 0.9985 -0.0548
vn -0.0000 -0.9985 0.0548
vn -0.0000 -0.9630 -0.2696
vn -0.0000 -0.9913 0.1319
vn -0.0000 0.9630 -0.2696
vn -0.0000 0.9789 0.2045
vn 1.0000 -0.0000 -0.0000
vn -0.0000 0.9630 0.2696
vn -0.0000 -0.9913 -0.1319
vn -0.0000 -0.9789 0.2045
vn -0.0000 -0.9985 -0.0548
vn -0.0000 0.9985 0.0548
vn -0.0000 0.9913 0.1319
vn -0.0000 0.9789 -0.2045
vn -0.0000 -0.9789 -0.2045
vn -0.0000 -0.9630 0.2696
vn -1.0000 -0.0000 -0.0000
vt 0.000000 0.012521
vt 0.000000 0.000000
vt 0.366190 0.577902
vt 0.366190 0.577902
vt 0.366190 0.577902
vt 0.366190 0.577902
vt 0.366190 0.577902
vt 0.366190 0.577902
vt 0.366190 0.577902
vt 0.366190 0.577902
vt 0.366190 0.577902
vt 0.366190 0.577902
vt 0.366190 0.577902
vt 0.366190 0.577902
vt 0.366190 0.577902
vt 0.366190 0.577902
vt 0.366190 0.577902
vt 0.366190 0.577902
vt 0.075016 0.012521
vt 0.075016 0.000000
vt 0.366190 0.577902
vt 0.366190 0.577902
vt 0.366190 0.577902
vt 0.366190 0.577902
vt 0.366190 0.577902
vt 0.366190 0.577902
vt 0.366190 0.577902
vt 0.366190 0.577902
vt 0.366190 0.577902
vt 0.366190 0.577902
vt 0.366190 0.577902
vt 0.366190 0.577902
vt 0.366190 0.577902
vt 0.366190 0.577902
vt 0.366190 0.577902
vt 0.366190 0.577902
vt 0.000000 0.000000
vt 0.876523 0.793688
vt 0.000000 0.000000
vt 0.876523 0.930197
vt 0.000000 0.000000
vt 0.500010 0.793688
vt 0.000000 0.000000
vt 0.500010 0.930197
vt 0.000000 0.000000
vt 0.688266 0.930197
vt 0.000000 0.000000
vt 0.688266 0.793688
vt 0.000000 0.000000
vt 0.782395 0.930197
vt 0.000000 0.000000
vt 0.782395 0.793688
vt 0.000000 0.000000
vt 0.594138 0.793688
vt 0.000000 0.000000
vt 0.594138 0.930197
vt 0.000000 0.000000
vt 0.123496 0.793688
vt 0.000000 0.000000
vt 0.123496 0.930197
vt 0.000000 0.000000
vt 0.311753 0.930197
vt 0.000000 0.000000
vt 0.311753 0.793688
vt 0.000000 0.000000
vt 0.217625 0.930197
vt 0.000000 0.000000
vt 0.217625 0.793688
vt 0.000000 0.000000
vt 0.405881 0.793688
vt 0.000000 0.000000
vt 0.405881 0.930197
vt 0.123496 0.930197
vt 0.000000 0.000000
vt 0.123496 0.793688
vt 0.000000 0.000000
vt 0.500010 0.930197
vt 0.000000 0.000000
vt 0.500010 0.793688
vt 0.000000 0.000000
vt 0.217625 0.930197
vt 0.000000 0.000000
vt 0.000000 0.000000
vt 0.405881 0.793688
vt 0.000000 0.000000
vt 0.405881 0.930197
vt 0.311753 0.930197
vt 0.000000 0.000000
vt 0.217625 0.793688
vt 0.000000 0.000000
vt 0.311753 0.793688
vt 0.000000 0.000000
vt 0.876523 0.930197
vt 0.000000 0.000000
vt 0.000000 0.000000
vt 0.876523 0.793688
vt 0.782395 0.930197
vt 0.000000 0.000000
vt 0.594138 0.793688
vt 0.000000 0.000000
vt 0.594138 0.930197
vt 0.000000 0.000000
vt 0.688266 0.930197
vt 0.000000 0.000000
vt 0.782395 0.793688
vt 0.000000 0.000000
vt 0.688266 0.793688
vt 0.000000 0.000000
s 0
f 11/11/1 5/5/1 4/4/1
f 13/13/2 6/6/2 5/5/2
f 14/14/3 7/7/3 6/6/3
f 15/15/4 8/8/4 7/7/4
f 16/16/5 9/9/5 8/8/5
f 17/17/6 10/10/6 9/9/6
f 18/18/7 3/3/7 10/10/7
f 29/29/3 21/21/3 22/22/3
f 6/6/8 8/8/8 10/10/8
f 17/17/9 15/15/9 13/13/9
f 31/31/2 22/22/2 23/23/2
f 32/32/1 23/23/1 24/24/1
f 33/33/10 24/24/10 25/25/10
f 34/34/7 25/25/7 26/26/7
f 35/35/6 26/26/6 27/27/6
f 36/36/5 27/27/5 28/28/5
f 36/36/4 21/21/4 30/30/4
f 26/26/8 24/24/8 22/22/8
f 33/33/9 35/35/9 30/30/9
f 1/1/9 20/20/9 19/19/9
f 11/11/10 3/3/10 12/12/10
f 41/45/11 61/85/11 46/55/11
f 46/55/12 57/78/12 40/43/12
f 39/41/13 60/83/13 45/53/13
f 47/57/14 71/106/14 52/67/14
f 45/53/15 64/92/15 42/47/15
f 38/39/16 59/82/16 43/49/16
f 49/61/17 67/98/17 51/65/17
f 60/84/18 57/77/18 61/86/18
f 63/89/18 62/87/18 59/81/18
f 56/75/18 59/81/18 55/73/18
f 64/91/18 61/86/18 62/87/18
f 57/77/18 68/99/18 69/101/18
f 70/103/18 71/105/18 67/97/18
f 67/97/18 66/96/18 65/93/18
f 69/101/18 72/107/18 70/103/18
f 51/65/19 65/94/19 48/59/19
f 50/63/20 68/100/20 53/69/20
f 42/47/21 63/90/21 44/51/21
f 53/69/22 58/80/22 39/41/22
f 40/43/23 69/102/23 54/71/23
f 54/71/24 70/104/24 49/61/24
f 43/49/25 62/88/25 41/45/25
f 52/67/26 72/108/26 50/63/26
f 44/51/27 56/76/27 37/37/27
f 47/58/28 51/66/28 48/60/28
f 52/68/28 49/62/28 51/66/28
f 50/64/28 54/72/28 49/62/28
f 53/70/28 40/44/28 54/72/28
f 45/54/28 40/44/28 39/42/28
f 42/48/28 46/56/28 45/54/28
f 44/52/28 41/46/28 42/48/28
f 37/38/28 43/50/28 44/52/28
f 11/11/1 13/13/1 5/5/1
f 13/13/2 14/14/2 6/6/2
f 14/14/3 15/15/3 7/7/3
f 15/15/4 16/16/4 8/8/4
f 16/16/5 17/17/5 9/9/5
f 17/17/6 18/18/6 10/10/6
f 18/18/7 12/12/7 3/3/7
f 29/29/3 30/30/3 21/21/3
f 10/10/8 3/3/8 4/4/8
f 4/4/8 5/5/8 6/6/8
f 6/6/8 7/7/8 8/8/8
f 8/8/8 9/9/8 10/10/8
f 10/10/8 4/4/8 6/6/8
f 13/13/9 11/11/9 12/12/9
f 12/12/9 18/18/9 17/17/9
f 17/17/9 16/16/9 15/15/9
f 15/15/9 14/14/9 13/13/9
f 13/13/9 12/12/9 17/17/9
f 31/31/2 29/29/2 22/22/2
f 32/32/1 31/31/1 23/23/1
f 33/33/10 32/32/10 24/24/10
f 34/34/7 33/33/7 25/25/7
f 35/35/6 34/34/6 26/26/6
f 36/36/5 35/35/5 27/27/5
f 36/36/4 28/28/4 21/21/4
f 22/22/8 21/21/8 28/28/8
f 28/28/8 27/27/8 26/26/8
f 26/26/8 25/25/8 24/24/8
f 24/24/8 23/23/8 22/22/8
f 22/22/8 28/28/8 26/26/8
f 30/30/9 29/29/9 31/31/9
f 31/31/9 32/32/9 33/33/9
f 33/33/9 34/34/9 35/35/9
f 35/35/9 36/36/9 30/30/9
f 30/30/9 31/31/9 33/33/9
f 1/1/9 2/2/9 20/20/9
f 11/11/10 4/4/10 3/3/10
f 41/45/11 62/88/11 61/85/11
f 46/55/12 61/85/12 57/78/12
f 39/41/13 58/80/13 60/83/13
f 47/57/14 66/95/14 71/106/14
f 45/53/15 60/83/15 64/92/15
f 38/39/16 55/74/16 59/82/16
f 49/61/17 70/104/17 67/98/17
f 60/84/18 58/79/18 57/77/18
f 63/89/18 64/91/18 62/87/18
f 56/75/18 63/89/18 59/81/18
f 64/91/18 60/84/18 61/86/18
f 57/77/18 58/79/18 68/99/18
f 70/103/18 72/107/18 71/105/18
f 67/97/18 71/105/18 66/96/18
f 69/101/18 68/99/18 72/107/18
f 51/65/19 67/98/19 65/94/19
f 50/63/20 72/108/20 68/100/20
f 42/47/21 64/92/21 63/90/21
f 53/69/22 68/100/22 58/80/22
f 40/43/23 57/78/23 69/102/23
f 54/71/24 69/102/24 70/104/24
f 43/49/25 59/82/25 62/88/25
f 52/67/26 71/106/26 72/108/26
f 44/51/27 63/90/27 56/76/27
f 47/58/28 52/68/28 51/66/28
f 52/68/28 50/64/28 49/62/28
f 50/64/28 53/70/28 54/72/28
f 53/70/28 39/42/28 40/44/28
f 45/54/28 46/56/28 40/44/28
f 42/48/28 41/46/28 46/56/28
f 44/52/28 43/50/28 41/46/28
f 37/38/28 38/40/28 43/50/28
