P2
16 16
255
0     0     0     0     0     0     0     0     0     0     0     0     0     0     0     0    
0     0     0     0     0     0     0     0     0     0     0     0     0     0     0     0    
0     0     0     0     0     0     0     0     0     0     0     0     0     0     0     0    
0     0     0     0     0     0     0     0     0     0     0     0     0     0     0     0    
0     0     0     0     0     0     0     0     0     0     0     0     0     0     0     0    
0     0     0     0     0     0     111   111   111   0     0     0     0     0     0     0    
0     80    100   130   150   111   135   145   135   111   150   130   80    50    10    0    
0     80    100   130   150   111   145   155   145   111   150   130   80    50    10    0    
0     80    100   130   150   111   135   145   135   111   150   130   80    50    10    0
0     0     0     0     0     0     111   111   111   0     0     0     0     0     0     0    
0     0     0     0     0     0     0     0     0     0     0     0     0     0     0     0    
0     0     0     0     0     0     0     0     0     0     0     0     0     0     0     0    
0     0     0     0     0     0     0     0     0     0     0     0     0     0     0     0    
0     0     0     0     0     0     0     0     0     0     0     0     0     0     0     0    
0     0     0     0     0     0     0     0     0     0     0     0     0     0     0     0    
0     0     0     0     0     0     0     0     0     0     0     0     0     0     0     0    