P2
16 16
255
0     0     0     0     0     0     0     0     0     0     0     0     0     0     0     0    
0     0     0     0     0     0     0     0     0     0     0     0     0     0     0     0    
0     0     0     0     0     0     0     0     0     0     0     0     0     0     0     0    
0     0     0     0     0     0     0     0     0     0     0     0     0     0     0     0    
0     0     0     0     0     0     0     0     0     0     0     0     0     0     0     0    
0     0     0     0     0     0     1     4   1   0     0     0     0     0     0     0    
3     8    1   13   10   11   15   5    5   11   15   1   8    5    10    0    
5     8    1   13   10   11   3   15   1   11   13   13   8    5    1    0    
3     8    1   13   10   14   13   1   1   1   15  3   8    5    1    0
1     0     0     0     0     0     11  1   1   0     0     0     0     0     0     0    
3     0     0     0     0     0     0     0     0     0     0     0     0     0     0     0    
0  4    0     0     0     0     0     0     0     0     0     0     0     0     0     0    
0     0     0     0     0     0     0     0     0     0     0     0     0     0     0     0    
0     0     0     0     0     0     0     0     0     0     0     0     0     0     0     0    
0     0     0     0     0     0     0     0     0     0     0     0     0     0     0     0    
0     0     0     0     0     0     0     0     0     0     0     0     0     0     0     0    